/vscmnt/brussel_pixiu_data/_data_brussel/112/vsc11236/PredSimResults/SUBJ06opt3D/expIG/worker_09.mot
version=1
nRows=5
nColumns=50
inDegrees=yes
endheader
                time	         pelvis_tilt	         pelvis_list	     pelvis_rotation	           pelvis_tx	           pelvis_ty	           pelvis_tz	       hip_flexion_r	     hip_adduction_r	      hip_rotation_r	        knee_angle_r	       ankle_angle_r	         mtp_angle_r	       hip_flexion_l	     hip_adduction_l	      hip_rotation_l	        knee_angle_l	       ankle_angle_l	         mtp_angle_l	    lumbar_extension	      lumbar_bending	     lumbar_rotation	 ercspn_r/activation	 intobl_r/activation	 extobl_r/activation	    abd_r/activation	    add_r/activation	hamstrings_r/activation	bifemsh_r/activation	glut_max_r/activation	iliopsoas_r/activation	rect_fem_r/activation	  vasti_r/activation	gastroc_r/activation	 soleus_r/activation	tib_ant_r/activation	 ercspn_l/activation	 intobl_l/activation	 extobl_l/activation	    abd_l/activation	    add_l/activation	hamstrings_l/activation	bifemsh_l/activation	glut_max_l/activation	iliopsoas_l/activation	rect_fem_l/activation	  vasti_l/activation	gastroc_l/activation	 soleus_l/activation	tib_ant_l/activation	
          0.00000000	         -7.18174661	         -1.45932881	          6.41429220	          0.00000000	          0.91920905	         -0.01021327	         34.48071717	         -1.13160754	         -8.71438267	         -7.13952003	          1.42203290	          0.26162096	        -12.20444467	         -1.27798693	         -3.21190300	        -10.13532730	          7.16235942	         36.40661280	         -6.41883993	          0.78297610	         -8.76634190	          0.19219801	          0.14913152	          0.00999999	          0.00999999	          0.38783759	          0.15603015	          0.18849904	          0.03902668	          0.14614271	          0.00999999	          0.00999999	          0.01653467	          0.01398288	          0.58788186	          0.19410459	          0.00999999	          0.00999999	          0.06244661	          0.00999999	          0.01533429	          0.26397206	          0.01653466	          0.76649951	          0.01182492	          0.00999999	          0.24453015	          0.38588422	          0.02733954	
          0.01094958	         -7.21160306	         -1.49931720	          6.47249924	          0.01833517	          0.91738440	         -0.00980010	         34.68538116	         -1.01291439	         -8.43167896	         -9.43783202	          1.09056555	          0.22078781	        -12.53576482	         -1.50870573	         -3.56216863	        -11.38547967	          5.86960633	         38.59875939	         -6.13299945	          1.17150173	         -9.19926450	          0.16253627	          0.12611619	          0.00999999	          0.01713459	          0.32798297	          0.14508995	          0.15940816	          0.15922111	          0.12358864	          0.00999999	          0.00999999	          0.01398289	          0.01182492	          0.64767567	          0.21207175	          0.00999999	          0.00999999	          0.05280928	          0.01182492	          0.02759262	          0.22643690	          0.01398288	          0.71338135	          0.00999999	          0.00999999	          0.20679204	          0.35365488	          0.02312025	
          0.02189917	         -7.21870402	         -1.58219445	          6.49641009	          0.03697103	          0.91581824	         -0.00927788	         34.71354855	         -0.88625342	         -8.18345423	        -11.51721569	          0.76648209	          0.20343895	        -12.67844164	         -1.80863687	         -3.93515182	        -13.01531980	          4.42966691	         40.78679491	         -5.83297039	          1.60185721	         -9.57715704	          0.17034693	          0.10665279	          0.00999999	          0.10604677	          0.34494186	          0.12716920	          0.13480685	          0.19487835	          0.10451532	          0.00999999	          0.00999999	          0.01182492	          0.00999999	          0.71899073	          0.21436022	          0.00999999	          0.00999999	          0.04465927	          0.00999999	          0.02333427	          0.21436453	          0.01182492	          0.71364208	          0.00999999	          0.00999999	          0.17487801	          0.29907565	          0.01955212	
          0.03284875	         -7.20364615	         -1.65897697	          6.48283969	          0.05566409	          0.91461201	         -0.00861275	         34.67722999	         -0.75452157	         -8.03931819	        -13.49714342	          0.33111350	          0.17340847	        -12.55754844	         -2.13201171	         -4.32527644	        -15.12941570	          2.81027591	         42.90256690	         -5.55329287	          2.01450668	         -9.89783044	          0.19028959	          0.09019317	          0.00999999	          0.16254169	          0.39677409	          0.11207397	          0.11400223	          0.29046440	          0.08838557	          0.00999999	          0.01777092	          0.00999999	          0.00999999	          0.75258485	          0.25358925	          0.00999999	          0.00999999	          0.03776705	          0.00999999	          0.01973312	          0.20182523	          0.00999999	          0.61278584	          0.00999999	          0.00999999	          0.14788925	          0.25291958	          0.01653466	
          0.04379833	         -7.16708239	         -1.73709507	          6.43842790	          0.07425773	          0.91384450	         -0.00782408	         34.64472617	         -0.61461520	         -7.95458793	        -15.55374874	          0.16013428	          0.12842865	        -12.12649800	         -2.49412728	         -4.72371330	        -17.78100961	          1.01602354	         44.75954541	         -5.30446033	          2.41859350	        -10.16008325	          0.18522232	          0.07627374	          0.00999999	          0.21173441	          0.38716885	          0.10195732	          0.09640837	          0.30739497	          0.07474511	          0.00999999	          0.09550187	          0.00999999	          0.00999999	          0.78475587	          0.29455034	          0.00999999	          0.00999999	          0.03193850	          0.03341455	          0.05300106	          0.19708186	          0.00999999	          0.51821517	          0.00999999	          0.00999999	          0.12506564	          0.21388674	          0.01398288	
